<svg xmlns="http://www.w3.org/2000/svg" viewBox="0 0 54.429 54.429" height="205.714" width="205.714">
  <circle cx="89.958" cy="124.643" r="27.214" stroke-width=".1" transform="translate(-62.744 -97.429)"/>
  <path d="M25.03 21.09c-.097-.047-.193-.096-.29-.096-1.544-.627-3.088-1.206-4.633-1.834-.965-.386-1.496-1.254-1.351-2.268.048-.193.096-.338.145-.53a317.902 317.902 0 0 1 2.413-6.081c.386-.966 1.206-1.497 2.172-1.352.193 0 .434.097.627.193 1.544.58 3.089 1.207 4.633 1.834.096.048.145.048.29.097.048-.145.096-.29.193-.435.193-.482.723-.675 1.206-.53.917.337 1.834.723 2.75 1.061.483.193.677.676.532 1.159-.049.144-.097.29-.193.482.096.048.193.097.29.097 1.544.627 3.136 1.206 4.68 1.834.917.386 1.448 1.254 1.304 2.171-.049.193-.097.435-.193.628-.773 1.978-1.545 4.005-2.365 5.984-.483 1.206-1.593 1.689-2.8 1.255a129.556 129.556 0 0 1-4.584-1.834c-.097-.048-.145-.048-.29-.097-.048.097-.096.193-.096.29-2.703 6.853-5.405 13.657-8.108 20.51-.048.145-.096.29-.193.435-.241.386-.676.482-1.158.338-.869-.338-1.786-.676-2.654-1.062-.58-.241-.773-.724-.531-1.351 1.447-3.62 2.847-7.288 4.295-10.907 1.255-3.234 2.558-6.467 3.812-9.7 0-.097.049-.145.097-.29zm.579.242c-2.75 6.95-5.453 13.85-8.204 20.8.579.242 1.11.435 1.64.676.531.193.821.097 1.014-.434l7.818-19.835c.049-.097.049-.145.097-.242-.772-.337-1.545-.627-2.365-.965zm-4.923-7.721c-.434 1.061-.82 2.123-1.254 3.233-.145.434-.097.82.144 1.206.097.145.194.145.338.145.483-.145.82-.386 1.014-.868.82-2.076 1.64-4.2 2.461-6.274.193-.435.097-.917-.145-1.303-.096-.097-.145-.145-.29-.097-.53.145-.868.435-1.061.917-.386.965-.772 1.979-1.207 3.04zm8.929-2.365c.772.29 1.592.627 2.364.917l.29-.724c-.58-.241-1.158-.435-1.737-.676-.676-.241-.724-.096-.917.483z" clip-rule="evenodd" fill="#fff" fill-rule="evenodd" stroke-width=".265"/>
</svg>
