<svg xmlns="http://www.w3.org/2000/svg" viewBox="0 0 54.429 54.429" height="205.714" width="205.714">
  <circle r="27.214" cy="124.643" cx="89.958" stroke-width=".1" transform="translate(-62.744 -97.429)"/>
  <g fill="#fff">
    <path d="M30.958 21.246L25.47 29.09l-3.077-2.159a2.057 2.057 0 0 0-2.863.505 2.057 2.057 0 0 0 .505 2.863l4.763 3.335a2.036 2.036 0 0 0 1.534.343 2.065 2.065 0 0 0 1.33-.844l6.67-9.526a2.057 2.057 0 0 0-3.373-2.361" stroke-width=".05"/>
    <path d="M35.222 13.321l4.297 24.375-20.312 3.582-4.298-24.375 4.063-.716.179 1.015c.099.561.634.936 1.194.837l10.157-1.79c.56-.1.935-.635.836-1.196l-.179-1.015zm-14.577.476l2.03-.358c.562-.099.936-.634.837-1.195a1.032 1.032 0 0 1 2.032-.358c.099.56.634.936 1.194.837l2.032-.358.358 2.03-8.125 1.434zm8.782-3.643l-2.204.389a3.102 3.102 0 0 0-3.232-1.524 3.102 3.102 0 0 0-2.516 2.538l-2.204.388c-.56.099-.936.634-.837 1.195l.18 1.015-4.063.717a2.066 2.066 0 0 0-1.673 2.39l4.298 24.374a2.066 2.066 0 0 0 2.39 1.673l20.312-3.581a2.066 2.066 0 0 0 1.673-2.39l-4.298-24.375a2.066 2.066 0 0 0-2.39-1.673l-4.062.717-.18-1.016a1.032 1.032 0 0 0-1.194-.837" stroke-width=".025"/>
  </g>
</svg>
