<svg xmlns="http://www.w3.org/2000/svg" id="svg8" viewBox="0 0 54.429 54.429" height="205.714" width="205.714">
  <g transform="translate(-62.744 -97.429)" id="layer1">
    <circle r="27.214" cy="124.643" cx="89.958" id="path817" fill="#419790" stroke-width=".1"/>
    <g transform="matrix(1.17453 0 0 1.17453 73.435 104.091)" id="Page-1" fill="#fff" fill-rule="evenodd">
      <g id="icon-70-document-file-pdf">
        <path d="M21 13v-3l-6-7H4.003A2.005 2.005 0 0 0 2 5.007v22.986A2 2 0 0 0 3.997 30h15.006A1.999 1.999 0 0 0 21 28.01V26h7.993A3.003 3.003 0 0 0 32 23.001V16A2.996 2.996 0 0 0 28.993 13zm-1 13v2.007A.997.997 0 0 1 19 29H4c-.545 0-1-.446-1-.995V4.995c0-.54.446-.995.996-.995H14v4.994c0 1.12.894 2.006 1.998 2.006H20v2h-7.993A3.003 3.003 0 0 0 9 15.999V23A2.996 2.996 0 0 0 12.007 26zM15 4.5v4.491c0 .557.45 1.009.997 1.009H19.7zM11.995 14C10.893 14 10 14.9 10 15.992v7.016A2 2 0 0 0 11.995 25h17.01C30.107 25 31 24.1 31 23.008v-7.016A2 2 0 0 0 29.005 14zM25 19v-2h4v-1h-5v7h1v-3h3v-1zm-13-1v5h1v-3h1.995a2 2 0 0 0 0-4H12zm1-1v2h2.001A.997.997 0 0 0 16 18c0-.552-.443-1-.999-1zm5-1v7h2.995A1.998 1.998 0 0 0 23 20.994v-2.988A2.003 2.003 0 0 0 20.995 16zm1 1v5h2.001A.997.997 0 0 0 22 21v-3c0-.552-.443-1-.999-1z" id="document-file-pdf"/>
      </g>
    </g>
  </g>
</svg>
