<svg xmlns="http://www.w3.org/2000/svg" xmlns:xlink="http://www.w3.org/1999/xlink" id="svg6466" viewBox="0 0 135.467 135.467" height="512" width="512">
  <defs id="defs6460">
    <clipPath id="clipPath7018">
      <use height="100%" width="100%" id="use7020" xlink:href="#g7014"/>
    </clipPath>
  </defs>
  <g transform="translate(-9.374 -101.51)" id="layer1">
    <g transform="matrix(.26458 0 0 .26458 9.374 101.51)" id="XMLID_5693_">
      <path id="XMLID_5705_" d="M256 325.8H9.7c4.6 16.2 10.7 31.8 18.3 46.5h456c7.6-14.8 13.7-30.3 18.3-46.5z" class="st0" fill="#fff"/>
      <path id="XMLID_5704_" d="M256 372.4H28c8.5 16.7 18.8 32.2 30.6 46.5H453.3c11.8-14.3 22.1-29.9 30.7-46.5z" class="st92" fill="#bf0a30"/>
      <path id="XMLID_5703_" d="M256 465.5H109c41.7 29.3 92.4 46.5 147 46.5 54.7 0 105.4-17.2 147-46.5z" class="st92" fill="#bf0a30"/>
      <path id="XMLID_5702_" d="M256 418.9H58.7c14.6 17.6 31.5 33.3 50.3 46.5h294c18.8-13.2 35.7-28.9 50.3-46.5z" class="st0" fill="#fff"/>
      <path id="XMLID_5701_" d="M256 279.3H1.1c1.4 16 4.4 31.5 8.6 46.5h492.6c4.3-15 7.2-30.6 8.6-46.5z" class="st92" fill="#bf0a30"/>
      <path id="XMLID_5700_" d="M403 46.5C361.4 17.2 310.7 0 256 0v46.5z" class="st92" fill="#bf0a30"/>
      <path id="XMLID_5699_" d="M256 186.2h246.3c-4.6-16.2-10.7-31.8-18.3-46.5H256z" class="st0" fill="#fff"/>
      <path id="XMLID_5698_" d="M256 139.6h228c-8.6-16.7-18.8-32.2-30.6-46.5H256z" class="st92" fill="#bf0a30"/>
      <path id="XMLID_5697_" d="M256 93.1h197.4c-14.6-17.6-31.5-33.3-50.3-46.5H256z" class="st0" fill="#fff"/>
      <path id="XMLID_5696_" d="M256 232.7h255c-1.4-16-4.4-31.5-8.6-46.5H256z" class="st92" fill="#bf0a30"/>
      <path id="XMLID_5695_" d="M109 46.5C90.2 59.8 73.3 75.4 58.7 93.1 46.8 107.4 36.5 123 28 139.6c-7.6 14.8-13.7 30.3-18.3 46.5-4.3 15-7.2 30.6-8.6 46.5H256V0c-54.6 0-105.4 17.2-147 46.5z" fill="#002868"/>
      <path id="XMLID_5694_" d="M511 232.7H1.1C.4 240.4 0 248.1 0 256s.4 15.6 1.1 23.3H511c.7-7.6 1-15.4 1-23.3s-.3-15.6-1-23.3z" class="st0" fill="#fff"/>
    </g>
    <path transform="matrix(.10613 0 0 .10613 45.548 97.872)" id="XMLID_5692_" class="st0" fill="#fff" d="M171.1 142.4l15.4 47.6-40.5-29.4-40.6 29.4 15.6-47.6-40.6-29.5h50.1L146 65.3l15.5 47.6h50.1z"/>
    <path transform="matrix(.10613 0 0 .10613 45.737 116.462)" id="XMLID_5692_-1" class="st0" fill="#fff" d="M146 65.3l15.5 47.6h50.1l-40.5 29.5 15.4 47.6-40.5-29.4-40.6 29.4 15.6-47.6-40.6-29.5h50.1z"/>
    <path transform="matrix(.10613 0 0 .10613 45.132 134.989)" id="XMLID_5692_-10" class="st0" fill="#fff" d="M171.1 142.4l15.4 47.6-40.5-29.4-40.6 29.4 15.6-47.6-40.6-29.5h50.1L146 65.3l15.5 47.6h50.1z"/>
    <g clip-path="url(#clipPath7018)" id="g7016">
      <g id="g7014">
        <path id="XMLID_5692_-3" d="M169.055 114.16l42.545-1.26-40.5 29.5 15.4 47.6-40.5-29.4-40.6 29.4 16.86-45.082c21.354-16.368 21.22-15.6 46.795-30.759z" transform="matrix(.10613 0 0 .10613 24.842 98.7)" fill="#fff"/>
      </g>
    </g>
    <path transform="matrix(.10613 0 0 .10613 25.031 117.29)" id="XMLID_5692_-1-4" class="st0" fill="#fff" d="M105.4 190l15.6-47.6-40.6-29.5h50.1L146 65.3l15.5 47.6h50.1l-40.5 29.5 15.4 47.6-40.5-29.4z"/>
    <path transform="matrix(.10613 0 0 .10613 24.426 135.817)" id="XMLID_5692_-10-0" class="st0" fill="#fff" d="M130.5 112.9L146 65.3l15.5 47.6h50.1l-40.5 29.5 15.4 47.6-40.5-29.4-40.6 29.4 15.6-47.6-40.6-29.5z"/>
    <path id="XMLID_5692_-1-1" d="M211.6 112.9l-40.5 29.5 15.4 47.6-41.76-29.4c15.11-24.96 18.333-28.789 31.87-47.7z" transform="matrix(.10613 0 0 .10613 3.698 117.29)" fill="#fff"/>
    <path id="XMLID_5692_-10-9" d="M146 160.6L105.4 190l15.6-47.6-31.786-29.5H130.5L146 65.3l15.5 47.6h50.1l-40.5 29.5 15.4 47.6z" transform="matrix(.10613 0 0 .10613 3.093 135.817)" fill="#fff"/>
  </g>
</svg>
